<svg xmlns="http://www.w3.org/2000/svg" viewBox="0 0 1200 600" width="1200" height="600"><path d="M 0 168.0 L 25.0 173.3 L 50.0 176.4 L 75.0 179.0 L 100.0 180.8 L 125.0 181.4 L 150.0 180.7 L 175.0 180.4 L 200.0 177.1 L 225.0 175.0 L 250.0 172.9 L 275.0 170.4 L 300.0 168.7 L 325.0 168.2 L 350.0 168.1 L 375.0 168.9 L 400.0 170.9 L 425.0 173.8 L 450.0 175.4 L 475.0 178.3 L 500.0 181.1 L 525.0 182.0 L 550.0 182.6 L 575.0 182.2 L 600.0 180.3 L 625.0 178.2 L 650.0 174.9 L 675.0 171.3 L 700.0 167.3 L 725.0 163.3 L 750.0 159.1 L 775.0 157.5 L 800.0 155.7 L 825.0 155.2 L 850.0 155.8 L 875.0 157.2 L 900.0 158.8 L 925.0 161.7 L 950.0 163.9 L 975.0 166.8 L 1000.0 167.7 L 1025.0 168.1 L 1050.0 167.7 L 1075.0 166.2 L 1100.0 164.5 L 1125.0 161.3 L 1150.0 158.5 L 1175.0 157.3 L 1200.0 153.9" fill="none" stroke="currentColor" stroke-width="1.25" stroke-linecap="round"></path><path d="M 0 180.0 L 25.0 202.3 L 50.0 204.0 L 75.0 204.4 L 100.0 203.7 L 125.0 201.6 L 150.0 197.3 L 175.0 192.5 L 200.0 188.8 L 225.0 184.7 L 250.0 180.7 L 275.0 178.3 L 300.0 176.8 L 325.0 176.3 L 350.0 177.9 L 375.0 179.6 L 400.0 182.3 L 425.0 185.2 L 450.0 188.8 L 475.0 190.7 L 500.0 191.1 L 525.0 190.4 L 550.0 188.1 L 575.0 184.8 L 600.0 181.6 L 625.0 175.2 L 650.0 171.6 L 675.0 166.4 L 700.0 161.5 L 725.0 157.9 L 750.0 156.1 L 775.0 155.7 L 800.0 157.5 L 825.0 159.3 L 850.0 162.7 L 875.0 167.4 L 900.0 172.6 L 925.0 176.4 L 950.0 180.0 L 975.0 181.7 L 1000.0 182.7 L 1025.0 181.8 L 1050.0 180.7 L 1075.0 178.7 L 1100.0 175.2 L 1125.0 172.3 L 1150.0 168.9 L 1175.0 169.0 L 1200.0 167.7" fill="none" stroke="currentColor" stroke-width="1.25" stroke-linecap="round"></path><path d="M 0 192.0 L 25.0 221.6 L 50.0 219.7 L 75.0 216.1 L 100.0 208.3 L 125.0 202.9 L 150.0 197.0 L 175.0 189.0 L 200.0 184.5 L 225.0 179.4 L 250.0 176.7 L 275.0 176.2 L 300.0 176.0 L 325.0 179.8 L 350.0 181.4 L 375.0 186.0 L 400.0 189.4 L 425.0 192.9 L 450.0 194.3 L 475.0 195.0 L 500.0 193.1 L 525.0 190.4 L 550.0 186.1 L 575.0 180.5 L 600.0 177.0 L 625.0 169.1 L 650.0 166.9 L 675.0 162.9 L 700.0 161.5 L 725.0 162.2 L 750.0 164.7 L 775.0 169.4 L 800.0 175.9 L 825.0 181.7 L 850.0 187.6 L 875.0 195.4 L 900.0 200.1 L 925.0 204.4 L 950.0 206.1 L 975.0 206.0 L 1000.0 205.5 L 1025.0 203.7 L 1050.0 200.8 L 1075.0 194.6 L 1100.0 191.8 L 1125.0 189.4 L 1150.0 187.8 L 1175.0 188.4 L 1200.0 190.4" fill="none" stroke="currentColor" stroke-width="1.25" stroke-linecap="round"></path><path d="M 0 204.0 L 25.0 218.8 L 50.0 211.3 L 75.0 206.4 L 100.0 197.8 L 125.0 188.9 L 150.0 181.4 L 175.0 174.4 L 200.0 171.5 L 225.0 171.0 L 250.0 171.2 L 275.0 173.9 L 300.0 180.8 L 325.0 185.1 L 350.0 191.7 L 375.0 198.7 L 400.0 201.4 L 425.0 203.7 L 450.0 204.6 L 475.0 203.7 L 500.0 198.8 L 525.0 194.1 L 550.0 189.5 L 575.0 186.1 L 600.0 181.8 L 625.0 177.0 L 650.0 177.7 L 675.0 178.5 L 700.0 182.2 L 725.0 188.1 L 750.0 195.7 L 775.0 203.9 L 800.0 213.7 L 825.0 220.7 L 850.0 227.7 L 875.0 233.3 L 900.0 235.7 L 925.0 235.7 L 950.0 235.0 L 975.0 229.8 L 1000.0 226.4 L 1025.0 221.4 L 1050.0 214.4 L 1075.0 209.2 L 1100.0 205.3 L 1125.0 204.0 L 1150.0 204.3 L 1175.0 205.5 L 1200.0 209.9" fill="none" stroke="currentColor" stroke-width="1.25" stroke-linecap="round"></path><path d="M 0 216.0 L 25.0 202.4 L 50.0 194.6 L 75.0 185.5 L 100.0 179.4 L 125.0 172.9 L 150.0 170.5 L 175.0 170.6 L 200.0 174.1 L 225.0 178.8 L 250.0 188.1 L 275.0 196.0 L 300.0 202.1 L 325.0 211.5 L 350.0 219.6 L 375.0 224.1 L 400.0 227.5 L 425.0 228.1 L 450.0 226.7 L 475.0 223.6 L 500.0 215.8 L 525.0 213.2 L 550.0 206.0 L 575.0 203.2 L 600.0 203.2 L 625.0 203.4 L 650.0 207.1 L 675.0 213.3 L 700.0 221.5 L 725.0 230.5 L 750.0 237.7 L 775.0 247.2 L 800.0 254.2 L 825.0 258.9 L 850.0 261.9 L 875.0 260.8 L 900.0 258.3 L 925.0 252.6 L 950.0 245.7 L 975.0 236.7 L 1000.0 226.8 L 1025.0 219.7 L 1050.0 212.8 L 1075.0 207.8 L 1100.0 206.3 L 1125.0 207.0 L 1150.0 209.1 L 1175.0 213.9 L 1200.0 219.0" fill="none" stroke="currentColor" stroke-width="1.25" stroke-linecap="round"></path><path d="M 0 228.0 L 25.0 196.9 L 50.0 189.8 L 75.0 184.0 L 100.0 183.2 L 125.0 184.1 L 150.0 189.1 L 175.0 195.3 L 200.0 207.9 L 225.0 214.8 L 250.0 228.9 L 275.0 238.0 L 300.0 249.3 L 325.0 257.6 L 350.0 261.1 L 375.0 262.0 L 400.0 261.3 L 425.0 255.2 L 450.0 252.9 L 475.0 243.1 L 500.0 236.8 L 525.0 229.9 L 550.0 227.0 L 575.0 226.6 L 600.0 227.9 L 625.0 233.6 L 650.0 239.4 L 675.0 244.6 L 700.0 256.2 L 725.0 261.7 L 750.0 267.9 L 775.0 274.7 L 800.0 274.7 L 825.0 272.8 L 850.0 268.6 L 875.0 258.1 L 900.0 250.2 L 925.0 239.2 L 950.0 226.8 L 975.0 216.3 L 1000.0 207.9 L 1025.0 199.8 L 1050.0 196.4 L 1075.0 195.1 L 1100.0 199.4 L 1125.0 201.1 L 1150.0 208.7 L 1175.0 216.0 L 1200.0 220.3" fill="none" stroke="currentColor" stroke-width="1.25" stroke-linecap="round"></path><path d="M 0 240.0 L 25.0 212.5 L 50.0 210.7 L 75.0 211.6 L 100.0 217.0 L 125.0 224.1 L 150.0 234.3 L 175.0 245.2 L 200.0 261.7 L 225.0 273.2 L 250.0 282.8 L 275.0 291.4 L 300.0 295.7 L 325.0 295.5 L 350.0 292.8 L 375.0 288.0 L 400.0 279.1 L 425.0 270.7 L 450.0 259.7 L 475.0 249.0 L 500.0 242.1 L 525.0 237.8 L 550.0 236.0 L 575.0 237.2 L 600.0 240.5 L 625.0 246.4 L 650.0 253.1 L 675.0 259.6 L 700.0 267.1 L 725.0 271.1 L 750.0 272.5 L 775.0 270.4 L 800.0 263.5 L 825.0 254.4 L 850.0 243.9 L 875.0 233.8 L 900.0 220.6 L 925.0 205.2 L 950.0 195.8 L 975.0 188.5 L 1000.0 185.2 L 1025.0 185.2 L 1050.0 188.4 L 1075.0 195.1 L 1100.0 202.2 L 1125.0 215.6 L 1150.0 225.4 L 1175.0 233.1 L 1200.0 238.1" fill="none" stroke="currentColor" stroke-width="1.25" stroke-linecap="round"></path><path d="M 0 252.0 L 25.0 243.1 L 50.0 247.1 L 75.0 253.4 L 100.0 263.8 L 125.0 276.0 L 150.0 288.7 L 175.0 300.4 L 200.0 307.5 L 225.0 313.9 L 250.0 317.0 L 275.0 316.2 L 300.0 310.9 L 325.0 301.8 L 350.0 289.6 L 375.0 274.1 L 400.0 259.3 L 425.0 246.8 L 450.0 236.7 L 475.0 231.2 L 500.0 226.1 L 525.0 224.7 L 550.0 230.5 L 575.0 237.0 L 600.0 241.1 L 625.0 249.2 L 650.0 256.8 L 675.0 260.9 L 700.0 263.9 L 725.0 262.3 L 750.0 256.6 L 775.0 248.6 L 800.0 238.4 L 825.0 228.1 L 850.0 216.1 L 875.0 205.6 L 900.0 194.6 L 925.0 186.9 L 950.0 185.6 L 975.0 187.8 L 1000.0 195.9 L 1025.0 201.1 L 1050.0 213.2 L 1075.0 229.9 L 1100.0 242.4 L 1125.0 254.0 L 1150.0 265.0 L 1175.0 272.2 L 1200.0 275.6" fill="none" stroke="currentColor" stroke-width="1.25" stroke-linecap="round"></path><path d="M 0 264.0 L 25.0 267.6 L 50.0 272.6 L 75.0 281.0 L 100.0 297.1 L 125.0 300.7 L 150.0 310.1 L 175.0 316.2 L 200.0 319.8 L 225.0 316.5 L 250.0 309.4 L 275.0 298.7 L 300.0 286.0 L 325.0 265.5 L 350.0 253.3 L 375.0 237.1 L 400.0 220.7 L 425.0 212.4 L 450.0 207.6 L 475.0 206.0 L 500.0 208.4 L 525.0 216.0 L 550.0 223.9 L 575.0 235.7 L 600.0 248.6 L 625.0 255.6 L 650.0 260.4 L 675.0 264.0 L 700.0 263.0 L 725.0 259.4 L 750.0 248.4 L 775.0 238.5 L 800.0 227.4 L 825.0 217.4 L 850.0 209.1 L 875.0 207.7 L 900.0 206.1 L 925.0 210.2 L 950.0 217.0 L 975.0 230.3 L 1000.0 246.0 L 1025.0 264.2 L 1050.0 278.9 L 1075.0 295.0 L 1100.0 303.6 L 1125.0 313.5 L 1150.0 318.4 L 1175.0 318.0 L 1200.0 314.1" fill="none" stroke="currentColor" stroke-width="1.25" stroke-linecap="round"></path><path d="M 0 276.0 L 25.0 268.5 L 50.0 281.0 L 75.0 286.4 L 100.0 294.5 L 125.0 301.0 L 150.0 304.1 L 175.0 302.7 L 200.0 296.7 L 225.0 284.9 L 250.0 269.9 L 275.0 252.1 L 300.0 238.9 L 325.0 221.1 L 350.0 209.7 L 375.0 200.9 L 400.0 196.5 L 425.0 196.8 L 450.0 202.7 L 475.0 213.7 L 500.0 229.5 L 525.0 243.8 L 550.0 258.9 L 575.0 271.2 L 600.0 279.0 L 625.0 286.6 L 650.0 289.5 L 675.0 289.8 L 700.0 279.8 L 725.0 276.8 L 750.0 265.5 L 775.0 255.0 L 800.0 248.0 L 825.0 242.6 L 850.0 244.3 L 875.0 247.6 L 900.0 255.4 L 925.0 269.0 L 950.0 279.9 L 975.0 303.1 L 1000.0 313.9 L 1025.0 333.7 L 1050.0 342.6 L 1075.0 350.5 L 1100.0 355.2 L 1125.0 351.8 L 1150.0 348.7 L 1175.0 332.8 L 1200.0 320.1" fill="none" stroke="currentColor" stroke-width="1.25" stroke-linecap="round"></path><path d="M 0 288.0 L 25.0 263.7 L 50.0 278.5 L 75.0 285.5 L 100.0 291.8 L 125.0 292.2 L 150.0 288.9 L 175.0 278.8 L 200.0 271.4 L 225.0 258.8 L 250.0 245.0 L 275.0 229.3 L 300.0 217.8 L 325.0 207.2 L 350.0 206.6 L 375.0 210.1 L 400.0 218.7 L 425.0 233.9 L 450.0 251.9 L 475.0 263.8 L 500.0 284.3 L 525.0 306.7 L 550.0 319.1 L 575.0 329.6 L 600.0 334.8 L 625.0 333.3 L 650.0 329.3 L 675.0 320.9 L 700.0 309.7 L 725.0 301.2 L 750.0 294.1 L 775.0 286.3 L 800.0 281.2 L 825.0 282.7 L 850.0 288.2 L 875.0 296.0 L 900.0 307.4 L 925.0 320.8 L 950.0 335.5 L 975.0 349.9 L 1000.0 361.2 L 1025.0 369.8 L 1050.0 370.9 L 1075.0 367.5 L 1100.0 356.9 L 1125.0 340.5 L 1150.0 321.8 L 1175.0 309.2 L 1200.0 287.6" fill="none" stroke="currentColor" stroke-width="1.25" stroke-linecap="round"></path><path d="M 0 300.0 L 25.0 285.2 L 50.0 296.9 L 75.0 301.3 L 100.0 303.6 L 125.0 299.5 L 150.0 295.9 L 175.0 279.4 L 200.0 272.3 L 225.0 255.8 L 250.0 245.9 L 275.0 243.0 L 300.0 241.4 L 325.0 246.5 L 350.0 256.0 L 375.0 272.2 L 400.0 292.4 L 425.0 306.2 L 450.0 330.1 L 475.0 351.0 L 500.0 368.5 L 525.0 376.3 L 550.0 383.3 L 575.0 382.9 L 600.0 378.6 L 625.0 363.9 L 650.0 355.9 L 675.0 336.2 L 700.0 324.6 L 725.0 312.6 L 750.0 301.8 L 775.0 298.7 L 800.0 299.4 L 825.0 301.5 L 850.0 310.1 L 875.0 320.9 L 900.0 336.7 L 925.0 346.4 L 950.0 359.5 L 975.0 361.8 L 1000.0 361.5 L 1025.0 355.7 L 1050.0 342.9 L 1075.0 328.0 L 1100.0 306.8 L 1125.0 288.5 L 1150.0 263.4 L 1175.0 248.3 L 1200.0 232.0" fill="none" stroke="currentColor" stroke-width="1.25" stroke-linecap="round"></path><path d="M 0 312.0 L 25.0 339.9 L 50.0 344.7 L 75.0 345.4 L 100.0 337.8 L 125.0 335.1 L 150.0 322.7 L 175.0 311.0 L 200.0 302.7 L 225.0 290.7 L 250.0 289.5 L 275.0 291.6 L 300.0 299.7 L 325.0 314.5 L 350.0 328.4 L 375.0 344.7 L 400.0 372.4 L 425.0 386.9 L 450.0 399.8 L 475.0 410.1 L 500.0 413.7 L 525.0 410.0 L 550.0 399.7 L 575.0 387.8 L 600.0 365.2 L 625.0 349.7 L 650.0 333.3 L 675.0 310.7 L 700.0 296.2 L 725.0 286.9 L 750.0 281.8 L 775.0 283.6 L 800.0 290.0 L 825.0 300.0 L 850.0 313.6 L 875.0 321.8 L 900.0 333.0 L 925.0 339.2 L 950.0 338.7 L 975.0 333.6 L 1000.0 322.1 L 1025.0 310.4 L 1050.0 293.4 L 1075.0 273.3 L 1100.0 250.5 L 1125.0 233.3 L 1150.0 218.3 L 1175.0 211.8 L 1200.0 210.0" fill="none" stroke="currentColor" stroke-width="1.25" stroke-linecap="round"></path><path d="M 0 324.0 L 25.0 404.0 L 50.0 399.5 L 75.0 385.7 L 100.0 373.9 L 125.0 355.0 L 150.0 347.9 L 175.0 334.6 L 200.0 328.0 L 225.0 323.6 L 250.0 328.0 L 275.0 333.5 L 300.0 351.9 L 325.0 360.8 L 350.0 380.8 L 375.0 399.0 L 400.0 404.6 L 425.0 413.0 L 450.0 413.9 L 475.0 408.5 L 500.0 395.4 L 525.0 377.0 L 550.0 356.5 L 575.0 330.6 L 600.0 306.3 L 625.0 289.0 L 650.0 270.0 L 675.0 257.7 L 700.0 250.9 L 725.0 252.2 L 750.0 260.4 L 775.0 270.1 L 800.0 277.2 L 825.0 298.1 L 850.0 311.9 L 875.0 316.6 L 900.0 325.7 L 925.0 325.1 L 950.0 318.3 L 975.0 312.2 L 1000.0 293.0 L 1025.0 275.9 L 1050.0 264.0 L 1075.0 248.0 L 1100.0 233.3 L 1125.0 229.9 L 1150.0 230.8 L 1175.0 237.2 L 1200.0 251.6" fill="none" stroke="currentColor" stroke-width="1.25" stroke-linecap="round"></path><path d="M 0 336.0 L 25.0 423.5 L 50.0 406.0 L 75.0 392.1 L 100.0 369.4 L 125.0 347.9 L 150.0 333.0 L 175.0 324.9 L 200.0 321.4 L 225.0 323.0 L 250.0 334.0 L 275.0 340.6 L 300.0 354.8 L 325.0 366.7 L 350.0 383.6 L 375.0 390.5 L 400.0 390.3 L 425.0 383.8 L 450.0 372.4 L 475.0 351.9 L 500.0 327.6 L 525.0 302.4 L 550.0 279.6 L 575.0 259.7 L 600.0 240.7 L 625.0 229.2 L 650.0 225.1 L 675.0 226.1 L 700.0 234.5 L 725.0 255.3 L 750.0 266.0 L 775.0 293.6 L 800.0 313.7 L 825.0 329.1 L 850.0 338.0 L 875.0 345.0 L 900.0 346.0 L 925.0 344.1 L 950.0 332.5 L 975.0 313.6 L 1000.0 306.3 L 1025.0 295.1 L 1050.0 284.3 L 1075.0 276.5 L 1100.0 277.8 L 1125.0 286.2 L 1150.0 299.8 L 1175.0 316.6 L 1200.0 347.9" fill="none" stroke="currentColor" stroke-width="1.25" stroke-linecap="round"></path><path d="M 0 348.0 L 25.0 380.6 L 50.0 358.2 L 75.0 333.3 L 100.0 310.2 L 125.0 297.2 L 150.0 289.5 L 175.0 292.3 L 200.0 298.3 L 225.0 303.1 L 250.0 315.1 L 275.0 336.3 L 300.0 349.9 L 325.0 358.6 L 350.0 361.0 L 375.0 359.8 L 400.0 349.1 L 425.0 333.1 L 450.0 319.1 L 475.0 299.0 L 500.0 270.6 L 525.0 252.5 L 550.0 238.2 L 575.0 233.0 L 600.0 229.0 L 625.0 233.3 L 650.0 245.4 L 675.0 272.3 L 700.0 295.9 L 725.0 315.4 L 750.0 341.7 L 775.0 363.3 L 800.0 382.5 L 825.0 396.0 L 850.0 401.9 L 875.0 396.4 L 900.0 390.0 L 925.0 382.6 L 950.0 367.7 L 975.0 353.2 L 1000.0 337.7 L 1025.0 330.5 L 1050.0 331.3 L 1075.0 334.4 L 1100.0 347.2 L 1125.0 364.0 L 1150.0 387.6 L 1175.0 403.8 L 1200.0 431.6" fill="none" stroke="currentColor" stroke-width="1.25" stroke-linecap="round"></path><path d="M 0 360.0 L 25.0 299.2 L 50.0 274.8 L 75.0 260.1 L 100.0 251.7 L 125.0 249.7 L 150.0 256.9 L 175.0 278.2 L 200.0 285.4 L 225.0 306.0 L 250.0 333.9 L 275.0 348.2 L 300.0 356.0 L 325.0 360.6 L 350.0 360.5 L 375.0 351.9 L 400.0 335.4 L 425.0 320.5 L 450.0 306.0 L 475.0 286.0 L 500.0 274.2 L 525.0 266.4 L 550.0 268.3 L 575.0 278.3 L 600.0 295.3 L 625.0 318.1 L 650.0 341.0 L 675.0 364.2 L 700.0 397.1 L 725.0 427.5 L 750.0 446.3 L 775.0 458.6 L 800.0 465.2 L 825.0 461.9 L 850.0 456.4 L 875.0 442.4 L 900.0 415.4 L 925.0 401.5 L 950.0 384.9 L 975.0 374.5 L 1000.0 361.1 L 1025.0 360.2 L 1050.0 365.2 L 1075.0 372.2 L 1100.0 393.9 L 1125.0 401.3 L 1150.0 419.8 L 1175.0 439.9 L 1200.0 449.4" fill="none" stroke="currentColor" stroke-width="1.25" stroke-linecap="round"></path><path d="M 0 372.0 L 25.0 240.2 L 50.0 235.2 L 75.0 240.8 L 100.0 247.6 L 125.0 269.3 L 150.0 293.1 L 175.0 324.8 L 200.0 345.9 L 225.0 366.7 L 250.0 389.3 L 275.0 399.4 L 300.0 405.0 L 325.0 403.3 L 350.0 397.1 L 375.0 385.4 L 400.0 361.6 L 425.0 345.2 L 450.0 338.2 L 475.0 326.9 L 500.0 328.1 L 525.0 334.1 L 550.0 349.7 L 575.0 370.7 L 600.0 394.5 L 625.0 419.2 L 650.0 447.0 L 675.0 473.9 L 700.0 489.2 L 725.0 502.9 L 750.0 508.5 L 775.0 505.0 L 800.0 491.0 L 825.0 473.5 L 850.0 448.7 L 875.0 424.7 L 900.0 398.0 L 925.0 373.3 L 950.0 355.5 L 975.0 347.7 L 1000.0 346.4 L 1025.0 347.0 L 1050.0 357.8 L 1075.0 371.4 L 1100.0 390.2 L 1125.0 406.1 L 1150.0 413.6 L 1175.0 424.4 L 1200.0 420.1" fill="none" stroke="currentColor" stroke-width="1.25" stroke-linecap="round"></path><path d="M 0 384.0 L 25.0 264.3 L 50.0 278.4 L 75.0 307.7 L 100.0 328.2 L 125.0 363.0 L 150.0 395.6 L 175.0 429.2 L 200.0 449.3 L 225.0 463.7 L 250.0 473.7 L 275.0 475.4 L 300.0 464.4 L 325.0 446.5 L 350.0 429.9 L 375.0 417.1 L 400.0 402.6 L 425.0 385.1 L 450.0 379.9 L 475.0 380.1 L 500.0 386.5 L 525.0 405.5 L 550.0 428.4 L 575.0 443.9 L 600.0 468.5 L 625.0 493.9 L 650.0 505.6 L 675.0 511.2 L 700.0 512.8 L 725.0 502.8 L 750.0 487.5 L 775.0 455.3 L 800.0 434.6 L 825.0 400.1 L 850.0 363.1 L 875.0 342.6 L 900.0 321.9 L 925.0 306.5 L 950.0 300.1 L 975.0 303.6 L 1000.0 317.2 L 1025.0 329.4 L 1050.0 345.2 L 1075.0 364.8 L 1100.0 382.8 L 1125.0 384.7 L 1150.0 391.6 L 1175.0 387.8 L 1200.0 377.2" fill="none" stroke="currentColor" stroke-width="1.25" stroke-linecap="round"></path><path d="M 0 396.0 L 25.0 360.3 L 50.0 388.1 L 75.0 433.9 L 100.0 466.0 L 125.0 486.8 L 150.0 516.4 L 175.0 529.7 L 200.0 535.4 L 225.0 530.3 L 250.0 522.5 L 275.0 499.6 L 300.0 488.0 L 325.0 452.0 L 350.0 434.4 L 375.0 407.9 L 400.0 394.6 L 425.0 388.5 L 450.0 388.7 L 475.0 398.9 L 500.0 408.6 L 525.0 425.7 L 550.0 453.5 L 575.0 465.5 L 600.0 478.9 L 625.0 483.8 L 650.0 481.2 L 675.0 468.8 L 700.0 451.7 L 725.0 421.1 L 750.0 392.7 L 775.0 357.6 L 800.0 323.4 L 825.0 306.5 L 850.0 276.9 L 875.0 265.7 L 900.0 258.8 L 925.0 265.3 L 950.0 277.7 L 975.0 299.9 L 1000.0 318.3 L 1025.0 337.1 L 1050.0 368.5 L 1075.0 384.3 L 1100.0 396.6 L 1125.0 401.6 L 1150.0 399.9 L 1175.0 388.6 L 1200.0 365.4" fill="none" stroke="currentColor" stroke-width="1.25" stroke-linecap="round"></path><path d="M 0 408.0 L 25.0 474.4 L 50.0 500.8 L 75.0 531.1 L 100.0 544.4 L 125.0 558.0 L 150.0 563.7 L 175.0 558.5 L 200.0 541.5 L 225.0 509.4 L 250.0 487.0 L 275.0 448.5 L 300.0 416.9 L 325.0 396.5 L 350.0 373.8 L 375.0 355.5 L 400.0 351.4 L 425.0 355.5 L 450.0 364.8 L 475.0 375.1 L 500.0 399.2 L 525.0 407.2 L 550.0 429.0 L 575.0 433.8 L 600.0 439.1 L 625.0 431.6 L 650.0 418.0 L 675.0 396.4 L 700.0 360.2 L 725.0 329.9 L 750.0 306.5 L 775.0 281.5 L 800.0 262.1 L 825.0 251.0 L 850.0 251.8 L 875.0 261.4 L 900.0 283.6 L 925.0 305.3 L 950.0 332.5 L 975.0 364.5 L 1000.0 398.0 L 1025.0 427.2 L 1050.0 442.1 L 1075.0 456.0 L 1100.0 461.5 L 1125.0 449.9 L 1150.0 439.5 L 1175.0 427.3 L 1200.0 405.5" fill="none" stroke="currentColor" stroke-width="1.25" stroke-linecap="round"></path><path d="M 0 420.0 L 25.0 517.5 L 50.0 535.6 L 75.0 548.0 L 100.0 545.7 L 125.0 533.6 L 150.0 511.2 L 175.0 486.9 L 200.0 454.0 L 225.0 423.9 L 250.0 385.3 L 275.0 347.2 L 300.0 322.1 L 325.0 302.9 L 350.0 295.3 L 375.0 300.3 L 400.0 314.8 L 425.0 334.1 L 450.0 344.8 L 475.0 376.7 L 500.0 393.8 L 525.0 405.9 L 550.0 417.6 L 575.0 419.9 L 600.0 412.0 L 625.0 392.0 L 650.0 380.4 L 675.0 349.7 L 700.0 328.0 L 725.0 306.8 L 750.0 299.1 L 775.0 286.6 L 800.0 290.1 L 825.0 305.5 L 850.0 320.9 L 875.0 361.5 L 900.0 398.0 L 925.0 425.1 L 950.0 455.1 L 975.0 492.3 L 1000.0 515.1 L 1025.0 532.2 L 1050.0 536.9 L 1075.0 535.9 L 1100.0 515.2 L 1125.0 505.7 L 1150.0 477.2 L 1175.0 454.8 L 1200.0 438.8" fill="none" stroke="currentColor" stroke-width="1.25" stroke-linecap="round"></path></svg>